<svg xmlns="http://www.w3.org/2000/svg" version="1.1" xmlns:xlink="http://www.w3.org/1999/xlink" viewBox="0 0 6.891089027474354 6.381158989717894"><g transform="matrix(0.8522780648191639,0,0,0.8522780648191639,1.9178069519509073,2.8880207818481436)"><rect width="7.997109695573709" height="7.997109695573709" x="-2.206020668099354" y="-3.643554847786855" fill="#fffcf7"></rect><g transform="matrix(1,0,0,1,0,0)"><g clip-path="url(#SvgjsClipPath24846)"><path d=" M -0.9536942144878537 0.8825138321618544 C -1.1421566195731025 0.5560882728200993 -1.1421566195731025 0.1539117271799011 -0.9536940386499096 -0.172513832161854 L -0.04001370565397022 -1.7550553286474164 C 0.14844940278305496 -2.0814826463686122 0.49674216884735944 -2.2825691608092704 0.873675419239172 -2.2825691608092704 L 2.7010712528198617 -2.2825691608092704 C 3.0780150534883175 -2.2825691608092704 3.4263148530703837 -2.0814703377125285 3.6147603777130035 -1.7550289529558083 L 4.528396751222929 -0.1724962483674486 C 4.716824692071144 0.15392931097430695 4.716824692071144 0.5560706890256935 4.528396751222929 0.882496248367449 L 3.6147603777130035 2.465037744853012 C 3.4263148530703837 2.7914633041947665 3.0780150534883175 2.9925691608092704 2.7010712528198617 2.9925691608092704 L 0.873675419239172 2.9925691608092704 C 0.49674216884735944 2.9925691608092704 0.14844940278305496 2.791480887989173 -0.04001370565397022 2.4650553286474164 L -0.9536942144878537 0.8825138321618544 Z" fill="#b88059" transform="matrix(1,0,0,1,0,0)" fill-rule="nonzero"></path></g></g><g transform="matrix(1,0,0,1,0,0)"><path d=" M 0.061 0.7099999999999999 L 0.061 -1.1102230246251565e-16 L 0.367 -1.1102230246251565e-16 Q 0.419 -1.1102230246251565e-16 0.463 0.020999999999999797 Q 0.507 0.041999999999999815 0.539 0.07749999999999979 Q 0.5710000000000001 0.11299999999999988 0.5885 0.1569999999999998 Q 0.606 0.20099999999999985 0.606 0.24599999999999983 Q 0.606 0.30899999999999983 0.5765 0.3649999999999998 Q 0.547 0.4209999999999999 0.4945 0.45649999999999985 Q 0.442 0.4919999999999999 0.372 0.4919999999999999 L 0.256 0.4919999999999999 L 0.256 0.7099999999999999 L 0.061 0.7099999999999999 M 0.256 0.32199999999999984 L 0.359 0.32199999999999984 Q 0.371 0.32199999999999984 0.382 0.31499999999999984 Q 0.393 0.30799999999999983 0.4005 0.29099999999999987 Q 0.40800000000000003 0.27399999999999985 0.40800000000000003 0.24599999999999983 Q 0.40800000000000003 0.21599999999999986 0.3995 0.1994999999999998 Q 0.391 0.18299999999999983 0.3785 0.17649999999999988 Q 0.366 0.16999999999999982 0.354 0.16999999999999982 L 0.256 0.16999999999999982 L 0.256 0.32199999999999984 M 0.6869858398437501 0.7099999999999999 L 0.6869858398437501 -1.1102230246251565e-16 L 0.88198583984375 -1.1102230246251565e-16 L 0.88198583984375 0.5399999999999998 L 1.20398583984375 0.5399999999999998 L 1.20398583984375 0.7099999999999999 L 0.6869858398437501 0.7099999999999999 M 1.4390078125 -1.1102230246251565e-16 L 1.6570078125 -1.1102230246251565e-16 L 1.8830078125 0.7099999999999999 L 1.6850078125 0.7099999999999999 L 1.6420078125 0.5709999999999998 L 1.4530078125 0.5709999999999998 L 1.4110078125 0.7099999999999999 L 1.2120078125 0.7099999999999999 L 1.4390078125 -1.1102230246251565e-16 M 1.6110078125 0.44099999999999984 L 1.5480078125 0.19099999999999984 L 1.4820078125 0.44099999999999984 L 1.6110078125 0.44099999999999984 M 2.1399999999999997 0.3609999999999998 L 2.1399999999999997 0.7099999999999999 L 1.9449999999999998 0.7099999999999999 L 1.9449999999999998 -1.1102230246251565e-16 L 2.097 -1.1102230246251565e-16 L 2.3819999999999997 0.3609999999999998 L 2.3819999999999997 -1.1102230246251565e-16 L 2.577 -1.1102230246251565e-16 L 2.577 0.7099999999999999 L 2.4219999999999997 0.7099999999999999 L 2.1399999999999997 0.3609999999999998 M 2.7020283203125 0.7099999999999999 L 2.7020283203125 -1.1102230246251565e-16 L 2.8970283203125 -1.1102230246251565e-16 L 2.8970283203125 0.7099999999999999 L 2.7020283203125 0.7099999999999999 M 3.575044921875 0.16999999999999982 L 3.3710449218750003 0.16999999999999982 L 3.3710449218750003 0.7099999999999999 L 3.176044921875 0.7099999999999999 L 3.176044921875 0.16999999999999982 L 2.971044921875 0.16999999999999982 L 2.971044921875 -1.1102230246251565e-16 L 3.575044921875 -1.1102230246251565e-16 L 3.575044921875 0.16999999999999982" fill="#431a10" fill-rule="nonzero"></path></g><g transform="matrix(1,0,0,1,0,0)"></g></g><defs><clipPath id="SvgjsClipPath24846"><path d=" M -1.0999999999999999 -2.2825691608092704 h 5.785068359375 v 5.275138321618541 h -5.785068359375 Z"></path></clipPath></defs></svg>